<svg xmlns="http://www.w3.org/2000/svg" xmlns:xlink="http://www.w3.org/1999/xlink" version="1.1" x="0px" y="0px" width="100px" height="100px" viewBox="0 0 100 100" enable-background="new 0 0 100 100" xml:space="preserve">
<g id="Captions">
</g>
<g id="Your_Icon">
	<g>
		<g>
			<path d="M64.338,89.239c-9.137,0-19.27-2.861-25.375-11.981c-0.614-0.918-0.368-2.16,0.55-2.774s2.16-0.368,2.774,0.55     c9.771,14.596,32.027,10.218,37.761,6.833c4.197-2.481,3.755-6.904,2.6-13.368c-0.143-0.796-0.282-1.578-0.4-2.336     c-0.036-0.236-0.117-0.508-0.197-0.794c-0.328-1.188-0.737-2.666,0.031-3.936c0.4-0.662,1.059-1.121,1.853-1.292     c2.301-0.507,3.902-1.236,4.887-2.23c0.339-0.34,0.478-0.688,0.466-1.167c-0.073-3.078-5.537-8.075-7.594-9.956     c-0.317-0.29-0.581-0.531-0.801-0.74h-8.117c-1.104,0-2-0.896-2-2s0.896-2,2-2h8.992c0.688,0,1.307,0.351,1.668,0.896     c0.179,0.18,0.589,0.556,0.957,0.892c4.561,4.171,8.794,8.609,8.894,12.813c0.037,1.562-0.525,2.973-1.626,4.08     c-1.371,1.384-3.304,2.396-5.886,3.081c0.045,0.176,0.093,0.352,0.132,0.491c0.114,0.413,0.232,0.84,0.295,1.252     c0.112,0.721,0.247,1.475,0.385,2.242c1.013,5.67,2.4,13.435-4.503,17.515C78.718,87.296,71.865,89.239,64.338,89.239z"/>
		</g>
		<g>
			<path d="M22.617,39.873c-1.104,0-1.998-0.893-2-1.996c-0.017-9.486,3.965-16.951,11.835-22.189     c7.896-5.255,18.253-5.373,25.546-4.546c10.477,1.188,18.205,6.219,22.351,14.548c1.399,2.816,2.305,5.997,2.85,10.013     c0.149,1.094-0.618,2.102-1.713,2.25c-1.086,0.147-2.103-0.617-2.25-1.713c-0.491-3.618-1.253-6.322-2.468-8.769     c-4.437-8.913-12.9-11.638-19.22-12.354c-6.63-0.751-15.989-0.685-22.879,3.901c-6.778,4.511-10.066,10.678-10.052,18.852     c0.002,1.104-0.892,2.002-1.996,2.004C22.619,39.873,22.618,39.873,22.617,39.873z"/>
		</g>
		<path d="M35.121,54.443l-2.135-4.476l0.911-2.726c-1.635-1.75-3.653-3.114-5.901-3.974l-2.46,2.031l-5.175-0.631l-1.502-2.03    c-1.1,0.252-2.168,0.63-3.211,1.119c-1.036,0.498-2.004,1.092-2.891,1.791l0.631,2.448l-2.759,4.416l-3.139,0.626    c-0.747,2.288-0.959,4.712-0.626,7.081l2.689,1.016l2.145,4.479l-0.939,2.826c1.585,1.734,3.544,3.111,5.724,4.003l2.682-2.176    l5.114,0.602l1.759,2.312c1.071-0.258,2.106-0.626,3.11-1.108c1.008-0.474,1.947-1.047,2.814-1.719l-0.691-2.825l2.754-4.352    l3.38-0.711c0.691-2.259,0.858-4.647,0.493-6.964L35.121,54.443z M24.521,62.363c-2.461,1.165-5.396,0.133-6.563-2.323    c-1.172-2.456-0.124-5.395,2.323-6.568c2.458-1.167,5.393-0.128,6.568,2.33C28.021,58.254,26.973,61.196,24.521,62.363z"/>
		<path d="M59.01,45.862V42l1.55-1.613c-0.554-1.775-1.517-3.412-2.811-4.771l-2.412,0.611l-3.419-2.176l-0.378-1.939    c-0.859-0.188-1.746-0.28-2.633-0.28c-0.889,0-1.771,0.092-2.63,0.28l-0.378,1.939l-3.419,2.176l-2.408-0.611    c-1.294,1.358-2.254,2.991-2.814,4.771L38.799,42l0.004,3.862l-1.598,1.678c0.521,1.741,1.445,3.367,2.681,4.728l2.618-0.637    l3.385,2.143l0.469,2.213c0.835,0.176,1.686,0.261,2.55,0.261c0.87,0,1.718-0.085,2.552-0.261l0.463-2.213l3.396-2.143    l2.612,0.637c1.241-1.36,2.156-2.986,2.678-4.736L59.01,45.862z M48.907,47.873c-2.121,0-3.834-1.722-3.834-3.826    c0-2.127,1.713-3.838,3.834-3.838c2.123,0,3.832,1.711,3.832,3.838C52.739,46.151,51.03,47.873,48.907,47.873z"/>
	</g>
</g>
<g id="Layer_3">
</g>
</svg>